# xmcd
#
# Track frame offsets:
#	150
#	13517
#	27127
#	40557
#	54605
#	68010
#	82915
#	101567
#	120267
#	134187
#	148640
#	161845
#	181230
#
# Disc length: 2608 seconds
#
# Revision: 1
# Processed by: cddbd v1.4PL0 Copyright (c) Steve Scherf et al.
# Submitted via: EasyCDDAExtractor 5.1.0
#
DISCID=a40a2e0d
DTITLE=Chris Wells - Across The Moon
DYEAR=2001
DGENRE=country
TTITLE0=Tequila Has Ways Of Making Me Talk
TTITLE1=Nuthin' About Nothin'
TTITLE2=Heart Shaped Like Texas
TTITLE3=Rainy Night In Dallas
TTITLE4=The Bottle Believes In Me
TTITLE5=I Don't Go Home That Way Anymore
TTITLE6=Fall Into The Flame
TTITLE7=Across The Moon
TTITLE8=I'm In Love With You
TTITLE9=What Would Jesus Do
TTITLE10=Finally Saw The Light
TTITLE11=Every Rose
TTITLE12=That's What She Said
EXTD=
EXTT0=
EXTT1=
EXTT2=
EXTT3=
EXTT4=
EXTT5=
EXTT6=
EXTT7=
EXTT8=
EXTT9=
EXTT10=
EXTT11=
EXTT12=
PLAYORDER=
